<svg width="24" height="24" viewBox="0 0 24 24" fill="none" xmlns="http://www.w3.org/2000/svg">
<g opacity="0.5">
<path d="M4.02446 11.242C3.99421 11.0946 3.99199 10.9408 4.01796 10.7922C4.04394 10.6436 4.09744 10.5042 4.17439 10.3845C4.25135 10.2648 4.34973 10.1679 4.46209 10.1013C4.57445 10.0347 4.69782 10 4.82284 10H19.1772C19.3022 10 19.4256 10.0347 19.5379 10.1013C19.6503 10.1679 19.7487 10.2648 19.8256 10.3845C19.9026 10.5042 19.9561 10.6436 19.982 10.7922C20.008 10.9408 20.0058 11.0946 19.9755 11.242L18.485 18.485C18.3959 18.9177 18.1904 19.3018 17.9011 19.5763C17.6118 19.8508 17.2553 19.9999 16.8882 20H7.1118C6.74471 19.9999 6.38818 19.8508 6.09887 19.5763C5.80956 19.3018 5.60406 18.9177 5.51504 18.485L4.02446 11.243V11.242Z" stroke="#8AAABE" stroke-width="1.5" stroke-linejoin="round"/>
<path d="M9.53125 14V16" stroke="#8AAABE" stroke-width="1.5" stroke-linecap="round"/>
<path d="M14.4688 14V16" stroke="#8AAABE" stroke-width="1.5" stroke-linecap="round"/>
<path d="M7.06055 10L10.3528 4" stroke="#8AAABE" stroke-width="1.5" stroke-linecap="round"/>
<path d="M16.9368 10L13.6445 4" stroke="#8AAABE" stroke-width="1.5" stroke-linecap="round"/>
</g>
<path d="M9.33531 19.9986C9.33448 19.9994 9.33318 19.9994 9.33235 19.9986L2.75785 13.7232C2.34513 13.3293 2.34513 12.6704 2.75785 12.2765L3.40489 11.6589C3.79115 11.2902 4.39893 11.29 4.7854 11.6585L9.33383 15.9951C9.33504 15.9962 9.33504 15.9981 9.33383 15.9993L21.2146 4.65905C21.601 4.29021 22.2091 4.29021 22.5955 4.65905L23.2422 5.27632C23.6549 5.67025 23.6549 6.32907 23.2422 6.72302L11.4288 18.0004L9.33531 19.9986Z" fill="#67CFF9"/>
</svg>
