<svg width="34" height="34" viewBox="0 0 34 34" fill="none" xmlns="http://www.w3.org/2000/svg">
<path d="M2.44467 15.5975C2.3887 15.3249 2.38459 15.0403 2.43265 14.7654C2.48071 14.4905 2.57968 14.2326 2.72204 14.0111C2.86441 13.7896 3.04644 13.6105 3.2543 13.4872C3.46216 13.364 3.69041 13.2999 3.9217 13.2998H30.4777C30.709 13.2999 30.9373 13.364 31.1451 13.4872C31.353 13.6105 31.535 13.7896 31.6774 14.0111C31.8197 14.2326 31.9187 14.4905 31.9668 14.7654C32.0148 15.0403 32.0107 15.3249 31.9547 15.5975L29.1971 28.9974C29.0324 29.7978 28.6523 30.5085 28.117 31.0163C27.5818 31.5241 26.9222 31.8 26.2431 31.8002H8.15635C7.47724 31.8 6.81764 31.5241 6.2824 31.0163C5.74716 30.5085 5.36698 29.7978 5.2023 28.9974L2.44467 15.5994V15.5975Z" stroke="#A97DFB" stroke-width="3" stroke-linejoin="round"/>
<path d="M12.6299 20.6992V24.3993" stroke="#A97DFB" stroke-width="3" stroke-linecap="round"/>
<path d="M21.7661 20.6992V24.3993" stroke="#A97DFB" stroke-width="3" stroke-linecap="round"/>
<path d="M8.06152 13.2994L14.1524 2.19922" stroke="#A97DFB" stroke-width="3" stroke-linecap="round"/>
<path d="M26.3345 13.2994L20.2437 2.19922" stroke="#A97DFB" stroke-width="3" stroke-linecap="round"/>
</svg>
