<svg width="24" height="30" viewBox="0 0 24 30" fill="none" xmlns="http://www.w3.org/2000/svg">
<path d="M20.9997 30H2.99996C1.34313 30 0 28.6569 0 27.0001V3.00039C0 1.34356 1.34313 0.000427246 2.99996 0.000427246H13.4998C13.5162 0.00113572 13.5323 0.00416604 13.5478 0.00942713C13.5625 0.0139529 13.5776 0.0169686 13.5928 0.018427C13.7251 0.0269067 13.8557 0.0526238 13.9813 0.094926L14.0233 0.108426C14.0573 0.119949 14.0904 0.133987 14.1223 0.150425C14.2857 0.22306 14.4346 0.3247 14.5618 0.450422L23.5617 9.45031C23.6874 9.57748 23.7891 9.72639 23.8617 9.8898C23.8767 9.9228 23.8872 9.9573 23.8992 9.9918L23.9127 10.0308C23.9546 10.1559 23.9793 10.2861 23.9862 10.4178C23.9885 10.4316 23.992 10.4451 23.9967 10.4583C23.9993 10.4721 24.0004 10.4862 23.9999 10.5003V27.0001C23.9999 28.6569 22.6566 30 20.9997 30ZM2.99996 3.00039V27.0001H20.9997V12.0003H13.4998C12.6714 12.0003 11.9998 11.3287 11.9998 10.5003V3.00039H2.99996ZM14.9998 5.12136V9.00031H18.8788L14.9998 5.12136Z" fill="white"/>
</svg>
