<svg width="13" height="14" viewBox="0 0 13 14" fill="none" xmlns="http://www.w3.org/2000/svg">
<path d="M11.0386 13.7907H1.39264C0.631598 13.7907 0.0146484 13.1737 0.0146484 12.4127V2.76673C0.0146484 2.00569 0.631598 1.38874 1.39264 1.38874H2.77064V0.0107422H4.14864V1.38874H8.28262V0.0107422H9.66062V1.38874H11.0386C11.7997 1.38874 12.4166 2.00569 12.4166 2.76673V12.4127C12.4166 13.1737 11.7997 13.7907 11.0386 13.7907ZM1.39264 5.52272V12.4127H11.0386V5.52272H1.39264ZM1.39264 2.76673V4.14473H11.0386V2.76673H1.39264ZM9.66062 11.0347H8.28262V9.65671H9.66062V11.0347ZM6.90463 11.0347H5.52663V9.65671H6.90463V11.0347ZM4.14864 11.0347H2.77064V9.65671H4.14864V11.0347ZM9.66062 8.27872H8.28262V6.90072H9.66062V8.27872ZM6.90463 8.27872H5.52663V6.90072H6.90463V8.27872ZM4.14864 8.27872H2.77064V6.90072H4.14864V8.27872Z" fill="#67CFF9"/>
</svg>
