<svg width="13" height="13" viewBox="0 0 13 13" fill="none" xmlns="http://www.w3.org/2000/svg">
<mask id="path-1-inside-1_3352:21638" fill="white">
<rect width="13" height="13" rx="1.04"/>
</mask>
<rect width="13" height="13" rx="1.04" fill="#67CFF9"/>
<g clip-path="url(#clip0_3352:21638)">
<path fill-rule="evenodd" clip-rule="evenodd" d="M9.28417 4.49594C9.30838 4.52009 9.32759 4.54878 9.3407 4.58037C9.35381 4.61196 9.36055 4.64582 9.36055 4.68002C9.36055 4.71422 9.35381 4.74808 9.3407 4.77967C9.32759 4.81126 9.30838 4.83995 9.28417 4.8641L5.64417 8.5041C5.62002 8.52831 5.59133 8.54752 5.55974 8.56063C5.52815 8.57374 5.49429 8.58049 5.46009 8.58049C5.42589 8.58049 5.39203 8.57374 5.36044 8.56063C5.32885 8.54752 5.30016 8.52831 5.27601 8.5041L3.45601 6.6841C3.40719 6.63528 3.37976 6.56906 3.37976 6.50002C3.37976 6.43098 3.40719 6.36476 3.45601 6.31594C3.50483 6.26712 3.57105 6.23969 3.64009 6.23969C3.70913 6.23969 3.77535 6.26712 3.82417 6.31594L5.46009 7.95238L8.91601 4.49594C8.94016 4.47173 8.96885 4.45252 9.00044 4.43941C9.03203 4.4263 9.06589 4.41956 9.10009 4.41956C9.13429 4.41956 9.16815 4.4263 9.19974 4.43941C9.23133 4.45252 9.26002 4.47173 9.28417 4.49594Z" fill="white"/>
</g>
<rect width="13" height="13" rx="1.04" stroke="#67CFF9" stroke-width="3" mask="url(#path-1-inside-1_3352:21638)"/>
<defs>
<clipPath id="clip0_3352:21638">
<rect width="6.24046" height="4.68" fill="white" transform="translate(3.12 4.15991)"/>
</clipPath>
</defs>
</svg>
