<svg width="260" height="270" viewBox="0 0 260 270" fill="none" xmlns="http://www.w3.org/2000/svg">
<path d="M212.097 135.578C212.265 117.392 206.376 99.6676 195.359 85.1976C184.342 70.7277 168.824 60.335 151.249 55.6575C133.674 50.98 115.043 52.2836 98.2906 59.3629C81.5384 66.4422 67.6182 78.8946 58.7236 94.7577C49.8291 110.621 46.466 128.993 49.1643 146.978C51.8626 164.963 60.469 181.539 73.627 194.094C86.7851 206.648 103.747 214.468 121.839 216.319C139.931 218.171 158.125 213.949 173.553 204.321" stroke="#132D43" stroke-width="10"/>
<path d="M59.6137 93.2087C50.3757 108.874 46.6132 127.169 48.9191 145.208C51.225 163.248 59.4682 180.008 72.3496 192.846C85.231 205.684 102.018 213.871 120.066 216.116C138.113 218.362 156.395 214.538 172.029 205.247C187.664 195.956 199.762 181.727 206.418 164.803C213.074 147.878 213.908 129.219 208.79 111.768C203.673 94.316 192.893 79.0636 178.151 68.4141C163.408 57.7645 145.541 52.3234 127.365 52.9481" stroke="url(#paint0_linear_4228_26401)" stroke-width="10"/>
<defs>
<linearGradient id="paint0_linear_4228_26401" x1="159.133" y1="247" x2="16.8488" y2="158.873" gradientUnits="userSpaceOnUse">
<stop stop-color="#7834F9"/>
<stop offset="1" stop-color="#67CFF9"/>
</linearGradient>
</defs>
</svg>
