<svg width="17" height="19" viewBox="0 0 17 19" fill="none" xmlns="http://www.w3.org/2000/svg">
<path d="M15.4004 4.11914C15.4004 4.27152 15.334 4.49552 15.0528 4.78644C14.7669 5.08216 14.3049 5.39416 13.6564 5.67786C12.3625 6.24396 10.505 6.61914 8.40039 6.61914C6.29582 6.61914 4.4383 6.24396 3.14436 5.67786C2.4959 5.39416 2.03392 5.08216 1.74802 4.78644C1.46677 4.49552 1.40039 4.27152 1.40039 4.11914C1.40039 3.96676 1.46677 3.74276 1.74802 3.45185C2.03392 3.15612 2.4959 2.84412 3.14436 2.56042C4.4383 1.99432 6.29582 1.61914 8.40039 1.61914C10.505 1.61914 12.3625 1.99432 13.6564 2.56042C14.3049 2.84412 14.7669 3.15612 15.0528 3.45185C15.334 3.74276 15.4004 3.96676 15.4004 4.11914Z" stroke="#67CFF9" stroke-width="2"/>
<path d="M15.4004 4.61914V9.11914C15.4004 10.776 12.2664 12.1191 8.40039 12.1191C4.5344 12.1191 1.40039 10.776 1.40039 9.11914V4.61914" stroke="#67CFF9" stroke-width="2" stroke-linecap="round"/>
<path d="M15.4004 9.61914V14.6191C15.4004 16.276 12.2664 17.6191 8.40039 17.6191C4.5344 17.6191 1.40039 16.276 1.40039 14.6191V9.61914" stroke="#67CFF9" stroke-width="2"/>
</svg>
