<svg width="28" height="29" viewBox="0 0 28 29" fill="none" xmlns="http://www.w3.org/2000/svg">
<path fill-rule="evenodd" clip-rule="evenodd" d="M0 14.6191C0 6.88715 6.26801 0.619141 14 0.619141C21.732 0.619141 28 6.88715 28 14.6191C28 22.3511 21.732 28.6191 14 28.6191C6.26801 28.6191 0 22.3511 0 14.6191Z" fill="#8AAABE"/>
<path fill-rule="evenodd" clip-rule="evenodd" d="M19.1701 22.2233C19.1701 22.2233 18.5365 21.4758 18.0085 20.8151C20.314 20.1718 21.1939 18.7462 21.1939 18.7462C20.4724 19.2156 19.786 19.5459 19.1701 19.772C18.2901 20.1371 17.4454 20.3805 16.6183 20.5195C14.9288 20.8325 13.3801 20.7456 12.0602 20.5022C11.0571 20.3109 10.1947 20.0327 9.47319 19.7546C9.06842 19.5981 8.62845 19.4069 8.18849 19.1635C8.16209 19.1461 8.13569 19.133 8.10929 19.12C8.08289 19.1069 8.05649 19.0939 8.0301 19.0765C7.9949 19.0591 7.9773 19.0417 7.9597 19.0244C7.64293 18.8505 7.46694 18.7288 7.46694 18.7288C7.46694 18.7288 8.31168 20.1197 10.5467 20.7803C10.0187 21.441 9.3676 22.2233 9.3676 22.2233C5.47829 22.1016 4 19.5807 4 19.5807C4 13.9825 6.53421 9.44479 6.53421 9.44479C9.06842 7.56713 11.4794 7.61929 11.4794 7.61929L11.6554 7.82791C8.48766 8.73198 7.02697 10.1055 7.02697 10.1055C7.02697 10.1055 7.41414 9.89682 8.06529 9.60127C9.94835 8.78413 11.4442 8.55812 12.0602 8.50596L12.0997 8.49937C12.1884 8.48444 12.2672 8.47119 12.3594 8.47119C13.4329 8.3321 14.6472 8.29733 15.9143 8.43642C17.5862 8.62766 19.3812 9.11446 21.2115 10.1055C21.2115 10.1055 19.8212 8.80152 16.8294 7.89746L17.0758 7.61929C17.0758 7.61929 19.4868 7.56713 22.021 9.44479C22.021 9.44479 24.5553 13.9825 24.5553 19.5807C24.5553 19.5807 23.0594 22.1016 19.1701 22.2233ZM11.4827 14.4224C10.4874 14.4224 9.70173 15.3174 9.70173 16.4094C9.70173 17.5013 10.5049 18.3963 11.4827 18.3963C12.4779 18.3963 13.2636 17.5013 13.2636 16.4094C13.281 15.3174 12.4779 14.4224 11.4827 14.4224ZM16.0756 16.4094C16.0756 15.3174 16.8613 14.4224 17.8565 14.4224C18.8517 14.4224 19.6374 15.3174 19.6374 16.4094C19.6374 17.5013 18.8517 18.3963 17.8565 18.3963C16.8787 18.3963 16.0756 17.5013 16.0756 16.4094Z" fill="#131E35"/>
</svg>
