<svg width="31" height="32" viewBox="0 0 31 32" fill="none" xmlns="http://www.w3.org/2000/svg">
<path d="M15.4993 1.61914C8.38846 1.61824 2.32681 6.72533 1.18832 13.6765C0.0498286 20.6276 4.17066 27.3704 10.9172 29.5954C11.6438 29.7249 11.9039 29.2831 11.9039 28.9031C11.9039 28.562 11.8923 27.6582 11.888 26.4565C7.85522 27.32 7.00362 24.5309 7.00362 24.5309C6.73813 23.663 6.16739 22.918 5.39488 22.4311C4.08696 21.5403 5.49515 21.5604 5.49515 21.5604C6.42621 21.6868 7.24566 22.2332 7.71425 23.0399C8.11089 23.7541 8.77913 24.2818 9.57049 24.5059C10.3618 24.7299 11.2108 24.6317 11.9287 24.233C11.9961 23.5048 12.3233 22.8241 12.8515 22.3131C9.63398 21.9519 6.25084 20.7199 6.25084 15.218C6.23298 13.7949 6.76659 12.4192 7.74186 11.3739C7.30059 10.1352 7.35255 8.77655 7.88719 7.57447C7.88719 7.57447 9.10355 7.18733 11.872 9.04387C14.2464 8.39913 16.7522 8.39913 19.1266 9.04387C21.8964 7.18589 23.1114 7.57447 23.1114 7.57447C23.6485 8.77598 23.7005 10.1356 23.2567 11.3739C24.2355 12.4191 24.7687 13.7984 24.7448 15.2237C24.7448 20.7401 21.3587 21.9519 18.1296 22.3074C18.8262 23.0126 19.1834 23.9802 19.1106 24.9641C19.1106 26.8839 19.0931 28.4325 19.0931 28.9031C19.0931 29.2874 19.3518 29.7335 20.0915 29.5925C26.8352 27.3637 30.9517 20.6206 29.8108 13.6713C28.67 6.72197 22.6086 1.61753 15.4993 1.61914Z" fill="#8AAABE"/>
</svg>
