<svg width="134" height="67" viewBox="0 0 134 67" fill="none" xmlns="http://www.w3.org/2000/svg">
<g clip-path="url(#clip0_3877_20711)">
<path d="M67.1962 41.7727C66.2312 40.7611 65.0708 39.9542 63.7846 39.4005C62.4985 38.8469 61.1131 38.5579 59.7119 38.5509C58.3107 38.544 56.9226 38.8192 55.6309 39.3601C54.3393 39.9009 53.1708 40.6963 52.1958 41.6983C51.1959 42.6772 50.4054 43.8476 49.8721 45.139C49.3388 46.4303 49.0737 47.8158 49.0928 49.212C49.0821 51.1523 49.61 53.0579 50.618 54.7185C51.626 56.3792 53.0751 57.7303 54.8054 58.623C56.5357 59.5157 58.48 59.9151 60.4239 59.7774C62.3677 59.6397 64.2356 58.97 65.8215 57.8424C67.6244 56.574 68.9775 54.7697 69.6867 52.6882H66.9345C66.4025 54.1304 65.4027 55.3547 64.0932 56.1673C62.7716 57.0235 61.2266 57.4745 59.65 57.4644C57.641 57.4648 55.7121 56.6803 54.2779 55.2796C52.7058 53.825 51.8689 52.1069 51.7673 50.1254H70.282C70.282 50.028 70.2877 49.9049 70.2992 49.756C70.2992 49.6071 70.3193 49.4697 70.3193 49.3866C70.3348 47.9743 70.0664 46.5732 69.53 45.2656C68.9937 43.9581 68.2002 42.7705 67.1962 41.7727ZM51.7673 47.8203C52.0464 45.9007 53.0027 44.1426 54.4648 42.8608C55.9109 41.595 57.7705 40.8969 59.696 40.8969C61.6215 40.8969 63.481 41.595 64.9271 42.8608C66.3781 44.1526 67.3345 45.9053 67.6333 47.8203H51.7673Z" fill="white"/>
<path d="M88.5348 39.0684L81.6184 55.2067L75.1507 39.0684H72.4014L80.3186 58.6486L76.787 66.4314H79.5018L91.2928 39.0769L88.5348 39.0684Z" fill="white"/>
<path d="M130.326 41.6979C129.357 40.6897 128.191 39.8899 126.9 39.3482C125.608 38.8064 124.219 38.5341 122.817 38.5481C121.412 38.5258 120.017 38.7977 118.723 39.3462C117.43 39.8947 116.267 40.7076 115.309 41.7323C114.309 42.7273 113.52 43.9117 112.987 45.2154C112.455 46.5192 112.19 47.916 112.208 49.3233C112.208 52.1619 113.255 54.6168 115.349 56.6881C116.841 58.1552 118.735 59.1507 120.793 59.5496C122.851 59.9486 124.982 59.7332 126.917 58.9304C128.853 58.1277 130.507 56.7734 131.672 55.0377C132.838 53.302 133.462 51.2622 133.467 49.1744C133.484 47.7807 133.214 46.3983 132.674 45.1125C132.134 43.8266 131.335 42.6646 130.326 41.6979ZM128.601 55.0044C127.877 55.8035 126.988 56.4373 125.996 56.8623C125.003 57.2874 123.929 57.4936 122.849 57.4669C121.783 57.4823 120.726 57.2743 119.746 56.8565C118.766 56.4387 117.885 55.8203 117.161 55.0416C116.406 54.2854 115.81 53.3869 115.408 52.3986C115.006 51.4104 114.806 50.3522 114.82 49.2861C114.79 47.0912 115.624 44.9718 117.143 43.3816C117.858 42.5808 118.737 41.9429 119.722 41.5115C120.707 41.0801 121.773 40.8653 122.849 40.8819C123.911 40.8702 124.965 41.0799 125.941 41.4976C126.917 41.9153 127.795 42.5317 128.517 43.3072C129.277 44.0609 129.877 44.9586 130.283 45.9471C130.688 46.9356 130.891 47.995 130.878 49.0627C130.921 51.2656 130.098 53.3979 128.583 55.0044H128.601Z" fill="white"/>
<path d="M35.999 48.6792L47.1199 39.0694H43.2921L33.9111 47.1988V34.5996C33.1021 35.3339 32.2368 36.004 31.3229 36.604V59.2252H33.9111V50.1481L44.1031 59.2166H47.7669L35.999 48.6792Z" fill="white"/>
<path d="M99.3798 48.679L110.498 39.0693H106.676L97.2977 47.1986V31.3008H94.7095V59.2165H97.2977V50.148L107.484 59.2165H111.148L99.3798 48.679Z" fill="white"/>
<path d="M27.7913 35.9246L27.3772 36.1165C27.2276 36.1823 27.0896 36.2482 26.9285 36.3083L26.5058 36.483H26.4684L26.0658 36.6319L25.9881 36.6576L25.6747 36.7693L25.4992 36.8266L25.0794 36.9554C24.9212 37.0041 24.763 37.0499 24.602 37.0929L24.1217 37.2246L23.6357 37.3334C23.4718 37.3706 23.3107 37.4021 23.1468 37.4336C22.481 37.5586 21.809 37.6484 21.1337 37.7028C20.6247 37.7429 20.1099 37.7658 19.5894 37.7658C19.0689 37.7658 18.5512 37.7429 18.0422 37.7028C17.3668 37.6487 16.6948 37.5589 16.0291 37.4336C15.8652 37.4021 15.7012 37.3706 15.5373 37.3334L15.0686 37.2246L14.6199 37.1072C14.5854 37.1072 14.5538 37.0872 14.5164 37.0814C14.3927 37.0442 14.2691 37.0127 14.1483 36.9726L14.0448 36.9411C13.9412 36.9125 13.8348 36.8781 13.7284 36.8438C13.622 36.8094 13.5242 36.7808 13.4236 36.7407C12.8772 36.5546 12.3394 36.3427 11.816 36.1079L11.4019 35.916L27.7913 35.9246Z" fill="#ADADAE"/>
<path d="M33.8991 31.2889C33.7093 31.5094 33.5052 31.727 33.3038 31.9389C33.2061 32.042 33.1083 32.1422 33.0163 32.2425C32.8092 32.4486 32.5964 32.6548 32.3778 32.8524L32.0529 33.1387C31.9407 33.2361 31.8314 33.3306 31.7164 33.4251C31.6953 33.4464 31.6722 33.4655 31.6474 33.4823C31.5582 33.5568 31.4691 33.6312 31.377 33.7028H7.8325L7.5593 33.4823L7.49027 33.4251C7.37812 33.3334 7.26596 33.2389 7.15668 33.1387C7.04739 33.0385 6.93811 32.9526 6.83171 32.8524C6.61314 32.6548 6.40033 32.4486 6.19039 32.2425C6.08974 32.1422 5.98908 32.042 5.90281 31.9389C5.69862 31.7242 5.49732 31.5066 5.30176 31.2832L33.8991 31.2889Z" fill="#ADADAE"/>
<path d="M37.0166 26.3574C36.985 26.4433 36.9476 26.5264 36.9102 26.6094C36.8239 26.8013 36.7319 26.9902 36.6399 27.1821C36.6399 27.1821 36.6399 27.1821 36.6399 27.2021C36.545 27.3911 36.4472 27.5801 36.3523 27.7748C36.2574 27.9695 36.1481 28.1499 36.0417 28.3475C35.9382 28.5193 35.8347 28.6911 35.7282 28.8629L35.711 28.8887H3.50155L3.48429 28.8629C3.03385 28.1446 2.63318 27.3964 2.28506 26.6237C2.2448 26.5407 2.21029 26.4576 2.17578 26.3717L37.0166 26.3574Z" fill="#ADADAE"/>
<path d="M38.2332 22.4004C38.2332 22.4348 38.2332 22.4662 38.2188 22.4977C38.1929 22.6295 38.1642 22.764 38.1354 22.8958C38.1153 22.9817 38.098 23.0647 38.075 23.1506C38.0232 23.3854 37.9657 23.6202 37.8996 23.855C37.8708 23.961 37.8421 24.0641 37.8104 24.17C37.7788 24.2759 37.75 24.3733 37.7155 24.4764H1.47127C1.43963 24.3733 1.408 24.2731 1.37924 24.17C1.35048 24.0669 1.31597 23.961 1.29009 23.855C1.22394 23.6202 1.16355 23.3854 1.11178 23.1506C1.08878 23.0647 1.0744 22.9817 1.05427 22.8958C1.02263 22.764 0.996751 22.6295 0.970868 22.4977L0.953613 22.4004H38.2332Z" fill="#ADADAE"/>
<path d="M38.5553 19.4043V19.4873C38.5553 19.6047 38.5553 19.7193 38.5381 19.8338C38.5208 19.9484 38.5381 19.9827 38.5381 20.0543C38.5381 20.1889 38.5381 20.3235 38.5122 20.4552C38.4834 20.7673 38.4518 21.0765 38.4086 21.3858C38.4102 21.4115 38.4102 21.4374 38.4086 21.4631H0.801238C0.799641 21.4374 0.799641 21.4115 0.801238 21.3858C0.749473 21.0765 0.714962 20.7673 0.691956 20.4552C0.691956 20.3979 0.691956 20.3435 0.677577 20.2862C0.663197 20.229 0.677577 20.1316 0.660321 20.0543C0.643066 19.977 0.660321 19.9083 0.660321 19.8338C0.660321 19.7594 0.660321 19.6047 0.643066 19.4873V19.4043H38.5553Z" fill="#ADADAE"/>
<path d="M38.5641 18.8991H0.625977C0.797228 14.0037 2.87074 9.36575 6.40942 5.96291C9.9481 2.56008 14.6755 0.658203 19.595 0.658203C24.5146 0.658203 29.242 2.56008 32.7807 5.96291C36.3193 9.36575 38.3929 14.0037 38.5641 18.8991Z" fill="#ADADAE"/>
</g>
<defs>
<clipPath id="clip0_3877_20711">
<rect width="132.847" height="66.4234" fill="white" transform="translate(0.625977)"/>
</clipPath>
</defs>
</svg>
