<svg width="29" height="24" viewBox="0 0 29 24" fill="none" xmlns="http://www.w3.org/2000/svg">
<path d="M22.5881 24.0002H1.41176C1.03706 24.004 0.676728 23.8561 0.412697 23.5903C0.148667 23.3244 0.00338202 22.963 0.00988229 22.5883H0V2.82376C0 1.26437 1.26413 0.000244141 2.82351 0.000244141H11.2941C11.6094 0.00054483 11.9155 0.106405 12.1637 0.300948L15.3881 2.82376H22.5881C24.1475 2.82376 25.4116 4.08789 25.4116 5.64727V11.2943H26.8234C27.2979 11.2943 27.7407 11.5328 28.0019 11.929C28.2631 12.3252 28.3077 12.8261 28.1208 13.2623L23.8855 23.1446C23.663 23.6635 23.1527 24.0002 22.5881 24.0002ZM6.57878 14.1178L3.55339 21.1766H21.6578L24.6831 14.1178H6.57878ZM2.82351 5.64727V15.7131L4.34962 12.1498C4.57209 11.6309 5.08238 11.2944 5.64703 11.2943H22.5881V5.64727H2.82351Z" fill="white"/>
</svg>
