<svg width="28" height="28" viewBox="0 0 28 28" fill="none" xmlns="http://www.w3.org/2000/svg">
<path d="M14.5657 28C13.7793 28.0023 13.0246 27.6898 12.4701 27.1321L0.867931 15.5284C0.255668 14.9179 -0.0582732 14.0697 0.00894922 13.2076L0.74945 3.48334C0.855043 2.02067 2.02044 0.858422 3.48338 0.756796L13.2076 0.0162911C13.2832 0 13.3602 0 13.4357 0C14.2204 0.00201453 14.9726 0.313943 15.5284 0.867872L27.132 12.4701C27.6878 13.0256 28 13.7792 28 14.565C28 15.3508 27.6878 16.1044 27.132 16.6599L16.6599 27.1321C16.1057 27.6894 15.3517 28.0019 14.5657 28ZM13.4342 2.96202L3.70257 3.70252L2.96207 13.4342L14.5657 25.038L25.0364 14.5672L13.4342 2.96202ZM8.28183 11.2438C6.86871 11.2441 5.65218 10.2462 5.37622 8.86024C5.10026 7.47433 5.84174 6.08648 7.14719 5.54546C8.45263 5.00445 9.95846 5.46095 10.7437 6.63579C11.529 7.81062 11.375 9.37658 10.376 10.376C9.82182 10.9333 9.06776 11.2458 8.28183 11.2438Z" fill="white"/>
</svg>
