<svg width="18" height="18" viewBox="0 0 18 18" fill="none" xmlns="http://www.w3.org/2000/svg">
<path fill-rule="evenodd" clip-rule="evenodd" d="M12.243 11.8132L16.7971 16.3673C16.9572 16.5275 17.0471 16.7447 17.047 16.9711C17.0469 17.1976 16.9569 17.4147 16.7967 17.5748C16.6365 17.7349 16.4193 17.8247 16.1929 17.8247C15.9664 17.8246 15.7493 17.7346 15.5892 17.5744L11.0351 13.0203C9.67369 14.0747 7.96173 14.5709 6.24746 14.408C4.53319 14.245 2.9454 13.4351 1.80708 12.143C0.668769 10.8509 0.0654414 9.17366 0.119838 7.45252C0.174234 5.73139 0.882269 4.09562 2.0999 2.87798C3.31754 1.66035 4.95331 0.952311 6.67445 0.897914C8.39558 0.843518 10.0728 1.44685 11.3649 2.58516C12.657 3.72348 13.4669 5.31127 13.6299 7.02554C13.7928 8.7398 13.2966 10.4518 12.2422 11.8132H12.243ZM6.88899 12.7452C8.23601 12.7452 9.52785 12.2101 10.4803 11.2576C11.4328 10.3051 11.9679 9.01324 11.9679 7.66622C11.9679 6.31921 11.4328 5.02736 10.4803 4.07488C9.52785 3.12239 8.23601 2.58729 6.88899 2.58729C5.54198 2.58729 4.25013 3.12239 3.29765 4.07488C2.34516 5.02736 1.81006 6.31921 1.81006 7.66622C1.81006 9.01324 2.34516 10.3051 3.29765 11.2576C4.25013 12.2101 5.54198 12.7452 6.88899 12.7452Z" fill="#8AAABE"/>
</svg>
