<svg width="24" height="30" viewBox="0 0 24 30" fill="none" xmlns="http://www.w3.org/2000/svg">
<path d="M20.9997 29.9998H2.99996C1.34313 29.9998 0 28.6567 0 26.9998V3.00014C0 1.34331 1.34313 0.000183105 2.99996 0.000183105H13.4998C13.5162 0.000891575 13.5323 0.0039219 13.5478 0.00918299C13.5625 0.0137088 13.5776 0.0167244 13.5928 0.0181829C13.7251 0.0266626 13.8557 0.0523797 13.9813 0.0946819L14.0233 0.108182C14.0573 0.119705 14.0904 0.133743 14.1223 0.150181C14.2857 0.222816 14.4346 0.324456 14.5618 0.450177L23.5617 9.45006C23.6874 9.57724 23.7891 9.72614 23.8617 9.88956C23.8767 9.92256 23.8872 9.95706 23.8992 9.99156L23.9127 10.0306C23.9546 10.1556 23.9793 10.2858 23.9862 10.4176C23.9885 10.4313 23.992 10.4449 23.9967 10.4581C23.9993 10.4719 24.0004 10.486 23.9999 10.5V26.9998C23.9999 28.6567 22.6566 29.9998 20.9997 29.9998ZM2.99996 3.00014V26.9998H20.9997V12H13.4998C12.6714 12 11.9998 11.3285 11.9998 10.5V3.00014H2.99996ZM14.9998 5.12112V9.00007H18.8788L14.9998 5.12112Z" fill="white"/>
</svg>
