<svg width="28" height="28" viewBox="0 0 28 28" fill="none" xmlns="http://www.w3.org/2000/svg">
<path fill-rule="evenodd" clip-rule="evenodd" d="M14 0C6.26801 0 0 6.26801 0 14C0 21.732 6.26801 28 14 28C21.732 28 28 21.732 28 14C28 6.26801 21.732 0 14 0ZM8.69467 6.06667H19.772C20.7061 6.06667 21.4667 6.818 21.4667 7.749V22.4L19.6893 20.8483L18.6891 19.9337L17.6309 18.9618L18.0691 20.4727H8.69467C7.76053 20.4727 7 19.7213 7 18.7903V7.749C7 6.818 7.76053 6.06667 8.69467 6.06667Z" fill="#8AAABE"/>
<path fill-rule="evenodd" clip-rule="evenodd" d="M16.5813 16.7321C16.5813 16.7321 16.2837 16.381 16.0357 16.0706C17.1186 15.7685 17.532 15.0988 17.532 15.0988C17.193 15.3193 16.8706 15.4745 16.5813 15.5806C16.168 15.7521 15.7712 15.8665 15.3826 15.9318C14.589 16.0788 13.8616 16.038 13.2416 15.9236C12.7704 15.8338 12.3653 15.7031 12.0264 15.5725C11.8362 15.499 11.6296 15.4091 11.4229 15.2948C11.4105 15.2866 11.3981 15.2805 11.3857 15.2744C11.3733 15.2683 11.3609 15.2621 11.3485 15.254C11.332 15.2458 11.3237 15.2376 11.3154 15.2295C11.1666 15.1478 11.084 15.0906 11.084 15.0906C11.084 15.0906 11.4808 15.744 12.5306 16.0543C12.2826 16.3646 11.9768 16.7321 11.9768 16.7321C10.1498 16.675 9.45544 15.4908 9.45544 15.4908C9.45544 12.8611 10.6458 10.7296 10.6458 10.7296C11.8362 9.84764 12.9688 9.87214 12.9688 9.87214L13.0514 9.97014C11.5634 10.3948 10.8773 11.04 10.8773 11.04C10.8773 11.04 11.0592 10.942 11.365 10.8031C12.2496 10.4193 12.9522 10.3131 13.2416 10.2886L13.2601 10.2855C13.3018 10.2785 13.3388 10.2723 13.3821 10.2723C13.8864 10.207 14.4568 10.1906 15.052 10.256C15.8373 10.3458 16.6805 10.5745 17.5402 11.04C17.5402 11.04 16.8872 10.4275 15.4818 10.0028L15.5976 9.87214C15.5976 9.87214 16.7301 9.84764 17.9205 10.7296C17.9205 10.7296 19.1109 12.8611 19.1109 15.4908C19.1109 15.4908 18.4082 16.675 16.5813 16.7321ZM12.9703 13.0676C12.5028 13.0676 12.1337 13.4881 12.1337 14.001C12.1337 14.5139 12.511 14.9343 12.9703 14.9343C13.4377 14.9343 13.8068 14.5139 13.8068 14.001C13.815 13.4881 13.4377 13.0676 12.9703 13.0676ZM15.1278 14.001C15.1278 13.4881 15.4969 13.0676 15.9644 13.0676C16.432 13.0676 16.8011 13.4881 16.8011 14.001C16.8011 14.5139 16.432 14.9343 15.9644 14.9343C15.5051 14.9343 15.1278 14.5139 15.1278 14.001Z" fill="#8AAABE"/>
</svg>
