<svg width="37" height="37" viewBox="0 0 37 37" fill="none" xmlns="http://www.w3.org/2000/svg">
<path d="M26.4934 35.1877C26.3588 35.2531 26.2242 35.3159 26.0897 35.3761C25.9551 35.4364 25.8013 35.5043 25.6526 35.5645C25.504 35.6248 25.3771 35.676 25.2399 35.735C25.227 35.7381 25.2145 35.7429 25.2028 35.7491L24.8106 35.8952C24.7824 35.9029 24.7606 35.9119 24.735 35.9195C24.6312 35.9593 24.5325 35.9926 24.4287 36.0298C24.3697 36.0464 24.3146 36.0656 24.2582 36.0862C24.1211 36.1272 23.9827 36.172 23.8481 36.2143C23.6943 36.2617 23.5405 36.3066 23.3829 36.3489C23.2253 36.3912 23.074 36.4309 22.9151 36.477C22.7562 36.5232 22.6011 36.5501 22.4409 36.5847C22.2807 36.6193 22.1231 36.6513 21.9642 36.6821C21.3164 36.8041 20.6628 36.8923 20.0059 36.9461C19.5099 36.9858 19.0075 37.0076 18.5 37.0076C17.9925 37.0076 17.4875 36.9858 16.9915 36.9461C16.3354 36.8924 15.6826 36.8043 15.0358 36.6821C14.8769 36.6513 14.7167 36.6206 14.5565 36.5847C14.3963 36.5488 14.2425 36.5142 14.0848 36.477L13.6478 36.363C13.6147 36.3522 13.5808 36.3436 13.5466 36.3373C13.4261 36.3015 13.3056 36.2707 13.1877 36.231L13.0865 36.2002C12.9865 36.172 12.8827 36.1387 12.7789 36.1041C12.6751 36.0695 12.579 36.0426 12.4815 36.0041C11.9484 35.8209 11.4242 35.6132 10.9129 35.3838C10.7847 35.3223 10.6437 35.2557 10.5092 35.1954L26.4934 35.1877Z" fill="white"/>
<path d="M32.4502 30.647V30.6534C32.2657 30.8687 32.0658 31.0814 31.8697 31.2942C31.7748 31.3954 31.6787 31.4941 31.5775 31.5915C31.3763 31.794 31.1686 31.9952 30.9559 32.1887C30.8482 32.2849 30.7419 32.3746 30.638 32.4669C30.5342 32.5591 30.4227 32.6553 30.31 32.745C30.2892 32.7654 30.2669 32.7842 30.2433 32.8014C30.1562 32.8731 30.069 32.9462 29.9793 33.0167H7.03853C6.94882 32.9462 6.85911 32.8731 6.77196 32.8014L6.70532 32.745C6.5951 32.6553 6.48616 32.563 6.37979 32.4669C6.27341 32.3707 6.16704 32.2849 6.06323 32.1887C5.8492 31.9952 5.64158 31.794 5.43781 31.5915C5.33912 31.4941 5.24044 31.3954 5.1456 31.2942C4.94695 31.084 4.74958 30.8713 4.55991 30.6534L32.4502 30.647Z" fill="white"/>
<path d="M35.4916 25.8179C35.4608 25.9012 35.4236 25.9832 35.3877 26.0639C35.3032 26.2523 35.2134 26.4369 35.1237 26.6253C35.1237 26.6253 35.1237 26.6394 35.1148 26.6445C35.0225 26.8303 34.9276 27.0149 34.829 27.1943C34.7303 27.3737 34.6303 27.5621 34.5265 27.7441C34.5265 27.7441 34.5265 27.7505 34.5265 27.7531C34.4253 27.921 34.324 28.0889 34.2202 28.2581L34.2035 28.2824H2.80416L2.7875 28.2581C2.34829 27.554 1.95735 26.8209 1.61739 26.0639C1.57894 25.9832 1.54434 25.9012 1.51102 25.8179H35.4916Z" fill="white"/>
<path d="M36.6771 21.9412C36.6771 21.9758 36.6668 22.0065 36.663 22.0373C36.6386 22.1654 36.6104 22.2936 36.5822 22.4218C36.563 22.5064 36.5463 22.5871 36.5233 22.6717C36.4733 22.9011 36.4169 23.1318 36.3515 23.3612C36.3246 23.465 36.2964 23.5662 36.2657 23.6701C36.2349 23.7739 36.2067 23.8687 36.1721 23.9699H0.824106C0.793347 23.8687 0.762589 23.7713 0.734394 23.6701C0.706198 23.5688 0.672876 23.465 0.648526 23.3612C0.583164 23.1318 0.520365 22.9011 0.474227 22.6717C0.451158 22.5871 0.437061 22.5064 0.417837 22.4218C0.387078 22.2936 0.361446 22.1654 0.337095 22.0373C0.337095 22.0065 0.325561 21.9758 0.319153 21.9412H36.6771Z" fill="white"/>
<path d="M36.9911 19.0049V19.0856C36.9911 19.201 36.9834 19.3138 36.9744 19.4253C36.9744 19.4983 36.9744 19.5714 36.9641 19.6418C36.9577 19.77 36.95 19.9046 36.9385 20.034C36.9103 20.3403 36.8796 20.6428 36.8373 20.9452C36.8356 20.9707 36.8317 20.996 36.8257 21.0209H0.170485C0.165568 20.9959 0.162144 20.9706 0.160232 20.9452C0.120502 20.6428 0.0871803 20.3403 0.0641114 20.034C0.0641114 19.9776 0.0538585 19.9251 0.0500137 19.8687C0.0423241 19.7931 0.0397609 19.7175 0.0333528 19.6418C0.0269448 19.5662 0.0256632 19.4983 0.0218184 19.4253C0.0141287 19.3138 0.00900229 19.201 0.00515747 19.0856V19.0049H36.9911Z" fill="white"/>
<path d="M37 18.4966H0C0 13.5901 1.9491 8.88453 5.41852 5.41511C8.88795 1.94568 13.5935 -0.00341797 18.5 -0.00341797C23.4065 -0.00341797 28.1121 1.94568 31.5815 5.41511C35.0509 8.88453 37 13.5901 37 18.4966Z" fill="white"/>
</svg>
