<svg width="55" height="55" viewBox="0 0 55 55" fill="none" xmlns="http://www.w3.org/2000/svg">
<path d="M27.1902 53.566C41.7569 53.566 53.5655 41.7574 53.5655 27.1907C53.5655 12.624 41.7569 0.81543 27.1902 0.81543C12.6236 0.81543 0.814941 12.624 0.814941 27.1907C0.814941 41.7574 12.6236 53.566 27.1902 53.566Z" fill="url(#paint0_linear_4088_52647)"/>
<path d="M38.7323 37.7006L29.8136 16.1381C29.3106 15.0233 28.5628 14.4795 27.5772 14.4795H26.7886C25.803 14.4795 25.0552 15.0233 24.5522 16.1381L20.6706 25.5326H17.734C16.8571 25.5394 16.1433 26.2464 16.1365 27.1301V27.1505C16.1433 28.0274 16.8571 28.7412 17.734 28.748H19.3111L15.6063 37.7006C15.5383 37.8977 15.4976 38.1017 15.4976 38.3124C15.4976 38.8154 15.6539 39.2097 15.9326 39.5156C16.2113 39.8215 16.6124 39.9711 17.1154 39.9711C17.4485 39.9643 17.768 39.8623 18.0331 39.6652C18.3186 39.468 18.5158 39.1825 18.6721 38.8562L22.7508 28.7412H25.5786C26.4555 28.7344 27.1693 28.0274 27.1761 27.1437V27.1029C27.1693 26.226 26.4555 25.5122 25.5786 25.5054H24.0695L27.1829 17.7492L35.6665 38.8494C35.8228 39.1757 36.02 39.4612 36.3055 39.6584C36.5706 39.8555 36.8969 39.9575 37.2232 39.9643C37.7262 39.9643 38.1205 39.8147 38.406 39.5088C38.6915 39.2029 38.841 38.8086 38.841 38.3056C38.8478 38.1017 38.8139 37.8909 38.7323 37.7006Z" fill="white"/>
<defs>
<linearGradient id="paint0_linear_4088_52647" x1="46.8553" y1="10.6441" x2="7.60883" y2="43.6659" gradientUnits="userSpaceOnUse">
<stop stop-color="#B6509E"/>
<stop offset="1" stop-color="#2EBAC6"/>
</linearGradient>
</defs>
</svg>
