<svg width="67" height="74" viewBox="0 0 67 74" fill="none" xmlns="http://www.w3.org/2000/svg">
<path d="M42.1965 33.7623L47.6228 24.5804L62.2486 47.2981L62.2554 51.6577L62.2077 21.6571C62.1731 20.9238 61.7826 20.2529 61.1596 19.8573L34.8278 4.75235C34.2119 4.45051 33.4306 4.45371 32.8159 4.76173C32.7329 4.80335 32.6547 4.84839 32.5802 4.89756L32.4885 4.95518L6.92909 19.726L6.8298 19.7708C6.70231 19.8294 6.57345 19.9037 6.45238 19.9901C5.96787 20.3368 5.64594 20.8492 5.54184 21.4241C5.52625 21.5112 5.51478 21.5999 5.50928 21.6893L5.54941 46.1369L19.1727 25.0796C20.8878 22.2873 24.6249 21.388 28.094 21.4369L32.1656 21.5441L8.17555 59.9117L11.0035 61.5354L35.2811 21.583L46.0118 21.5441L21.7968 62.5048L31.8877 68.2928L33.0933 68.9843C33.6033 69.191 34.2045 69.2013 34.7188 69.0163L61.4208 53.5847L56.3157 56.5347L42.1965 33.7623ZM44.2668 63.4981L34.0747 47.5458L40.2963 37.0174L53.6815 58.0569L44.2668 63.4981Z" fill="#2D374B"/>
<path d="M34.0747 47.5459L44.2668 63.4983L53.6817 58.0571L40.2965 37.0176L34.0747 47.5459Z" fill="#28A0F0"/>
<path d="M62.2553 51.6564L62.2484 47.2968L47.6226 24.5791L42.1963 33.761L56.3155 56.5334L61.4206 53.5834C61.9214 53.1779 62.2243 52.5827 62.2562 51.9404L62.2553 51.6564Z" fill="#28A0F0"/>
<path d="M0.966051 55.7687L8.17517 59.9112L32.1652 21.5437L28.0936 21.4364C24.6245 21.3875 20.8877 22.2869 19.1723 25.0791L5.54903 46.1365L0.96582 53.1591V55.7687H0.966051Z" fill="white"/>
<path d="M46.0115 21.543L35.281 21.5818L11.0034 61.5343L19.489 66.4067L21.7967 62.5036L46.0115 21.543Z" fill="white"/>
<path d="M66.7775 21.4883C66.6879 19.2503 65.4728 17.2014 63.5694 16.0087L36.8925 0.709672C35.0097 -0.235871 32.6576 -0.237015 30.7718 0.708985C30.5489 0.821033 4.82883 15.6968 4.82883 15.6968C4.47296 15.8669 4.13016 16.0698 3.80754 16.2998C2.10844 17.5143 1.0727 19.4012 0.966309 21.4746V53.159L5.54951 46.1364L5.50938 21.6888C5.51489 21.5994 5.52612 21.5116 5.54195 21.4247C5.64536 20.8494 5.96752 20.3363 6.45249 19.9896C6.57356 19.9032 32.7328 4.80283 32.816 4.76121C33.431 4.4532 34.2122 4.45 34.8279 4.75184L61.1597 19.8567C61.7827 20.2523 62.1732 20.9232 62.2079 21.6566V51.9412C62.176 52.5835 61.9215 53.1785 61.4207 53.5841L56.3156 56.5342L53.6816 58.0564L44.2667 63.4976L34.7187 69.0158C34.2044 69.201 33.6032 69.1907 33.0932 68.9838L21.7966 62.5043L19.489 66.4072L29.6409 72.2361C29.9766 72.4264 30.2758 72.5952 30.5212 72.7328C30.9014 72.9455 31.1602 73.0875 31.2517 73.1316C31.9733 73.481 33.0114 73.6845 33.9469 73.6845C34.8047 73.6845 35.641 73.5274 36.4325 73.2183L64.1649 57.2017C65.7567 55.9719 66.6931 54.1172 66.7775 52.1079V21.4883Z" fill="#96BEDC"/>
</svg>
