<svg width="37" height="38" viewBox="0 0 37 38" fill="none" xmlns="http://www.w3.org/2000/svg">
<g clip-path="url(#clip0_4088_52587)">
<path d="M18.4196 37.0115C28.431 37.0115 36.5469 28.8956 36.5469 18.8842C36.5469 8.87272 28.431 0.756836 18.4196 0.756836C8.40812 0.756836 0.292236 8.87272 0.292236 18.8842C0.292236 28.8956 8.40812 37.0115 18.4196 37.0115Z" fill="#E84142"/>
<path d="M24.8142 19.3551C25.4422 18.2703 26.4556 18.2703 27.0837 19.3551L30.9946 26.2206C31.6226 27.3054 31.1088 28.1904 29.8527 28.1904H21.9738C20.732 28.1904 20.2181 27.3054 20.8319 26.2206L24.8142 19.3551ZM17.2492 6.13781C17.8773 5.05302 18.8764 5.05302 19.5044 6.13781L20.3751 7.70789L22.4305 11.3191C22.9301 12.3468 22.9301 13.56 22.4305 14.5877L15.5364 26.5346C14.9084 27.5052 13.8664 28.119 12.7103 28.1904H6.98658C5.73051 28.1904 5.21667 27.3197 5.8447 26.2206L17.2492 6.13781Z" fill="white"/>
</g>
<defs>
<clipPath id="clip0_4088_52587">
<rect width="36.2547" height="36.2547" fill="white" transform="translate(0.291992 0.755859)"/>
</clipPath>
</defs>
</svg>
