<svg width="33" height="39" viewBox="0 0 33 39" fill="none" xmlns="http://www.w3.org/2000/svg">
<g clip-path="url(#clip0_4088_52616)">
<path d="M19.7369 31.6959V35.8466L16.0536 37.9752L12.4804 35.8466V31.6959L16.0536 33.8245L19.7369 31.6959ZM0.0263672 17.3245L3.59962 19.4548V26.5856L9.77335 30.2042V34.3566L0.0263672 28.7159V17.3245ZM32.0826 17.3245V28.7159L22.2273 34.3566V30.2042L28.3993 26.5856V19.4548L32.0826 17.3245ZM22.2273 11.6837L25.9089 13.8071V17.963L19.7369 21.5834V28.8206L16.1619 30.9509L12.5886 28.8206V21.5834L6.2001 17.963V13.8071L9.88163 11.6786L16.0536 15.3023L22.2273 11.6837ZM6.2001 20.9534L9.77335 23.0768V27.2276L6.2001 25.099V20.9534ZM25.9089 20.9534V25.1041L22.3356 27.2327V23.0768L25.9089 20.9534ZM3.59962 8.07884L7.2829 10.2023L3.59962 12.3223V16.473L0.0263672 14.3444V10.2023L3.59962 8.07884ZM28.5076 8.07884L32.1909 10.2023V14.3444L28.5076 16.473V12.3223L24.9344 10.2023L28.5076 8.07884ZM16.0536 8.07884L19.7369 10.2023L16.0536 12.3223L12.4804 10.2023L16.0536 8.07884ZM16.0536 0.932617L25.9089 6.5751L22.3356 8.70368L16.1619 5.08337L9.87465 8.70368L6.31362 6.5751L16.0536 0.932617Z" fill="#F3BA2F"/>
</g>
<defs>
<clipPath id="clip0_4088_52616">
<rect width="32.1348" height="37.0787" fill="white" transform="translate(0.026123 0.932617)"/>
</clipPath>
</defs>
</svg>
