<svg width="36" height="36" viewBox="0 0 36 36" fill="none" xmlns="http://www.w3.org/2000/svg">
<path d="M17.5357 35.8664C27.2059 35.8664 35.0451 28.0272 35.0451 18.357C35.0451 8.68686 27.2059 0.847656 17.5357 0.847656C7.86558 0.847656 0.0263672 8.68686 0.0263672 18.357C0.0263672 28.0272 7.86558 35.8664 17.5357 35.8664Z" fill="#13B5EC"/>
<path fill-rule="evenodd" clip-rule="evenodd" d="M18.8489 14.964L22.7885 12.6659V17.2621L18.8489 14.964ZM22.7885 24.813L17.5357 27.8772L12.2829 24.813V19.4508L17.5357 22.5149L22.7885 19.4508V24.813ZM12.2829 12.6659L16.2225 14.964L12.2829 17.2621V12.6659ZM18.1923 16.0583L22.1319 18.3564L18.1923 20.6545V16.0583ZM16.8791 20.6545L12.9395 18.3564L16.8791 16.0583V20.6545ZM22.1319 11.5716L17.5357 14.198L12.9395 11.5716L17.5357 8.83572L22.1319 11.5716ZM10.9697 11.1338V25.4696L17.5357 29.1904L24.1017 25.4696V11.1338L17.5357 7.41309L10.9697 11.1338Z" fill="white"/>
</svg>
