<svg width="21" height="20" viewBox="0 0 21 20" fill="none" xmlns="http://www.w3.org/2000/svg">
<mask id="mask0_4342_35670" style="mask-type:alpha" maskUnits="userSpaceOnUse" x="0" y="0" width="21" height="20">
<path fill-rule="evenodd" clip-rule="evenodd" d="M0.5 0H20.5V20H0.5V0Z" fill="white"/>
</mask>
<g mask="url(#mask0_4342_35670)">
<path fill-rule="evenodd" clip-rule="evenodd" d="M10.5 20.0004C5 20.0004 0.5 15.5004 0.5 9.95041C0.55 4.45041 5 -0.0495873 10.55 0.000412679C16.05 0.0504127 20.5 4.50041 20.5 10.1004C20.45 15.5504 16 20.0004 10.5 20.0004Z" fill="#8AAABE"/>
<path fill-rule="evenodd" clip-rule="evenodd" d="M11.4502 8.79992L11.1502 10.3999L14.0002 10.7999L13.8002 11.5499L11.0002 11.1499C10.8002 11.7999 10.7002 12.4999 10.4502 13.0999C10.2002 13.7999 9.9502 14.4999 9.6502 15.1499C9.2502 15.9999 8.5502 16.5999 7.6002 16.7499C7.0502 16.8499 6.4502 16.7999 6.0002 16.4499C5.8502 16.3499 5.7002 16.1499 5.7002 15.9999C5.7002 15.7999 5.8002 15.5499 5.9502 15.4499C6.0502 15.3999 6.3002 15.4499 6.4502 15.4999C6.6002 15.6499 6.7502 15.8499 6.8502 16.0499C7.1502 16.4499 7.5502 16.4999 7.9502 16.1999C8.4002 15.7999 8.6502 15.2499 8.8002 14.6999C9.1002 13.4999 9.4002 12.3499 9.6502 11.1499V10.9499L7.0002 10.5499L7.1002 9.79992L9.8502 10.1999L10.2002 8.64992L7.3502 8.19992L7.4502 7.39992L10.4002 7.79992C10.5002 7.49992 10.5502 7.24992 10.6502 6.99992C10.9002 6.09992 11.1502 5.19992 11.7502 4.39992C12.3502 3.59992 13.0502 3.09992 14.1002 3.14992C14.5502 3.14992 15.0002 3.29992 15.3002 3.64992C15.3502 3.69992 15.4502 3.79992 15.4502 3.89992C15.4502 4.09992 15.4502 4.34992 15.3002 4.49992C15.1002 4.64992 14.8502 4.59992 14.6502 4.39992C14.5002 4.24992 14.4002 4.09992 14.2502 3.94992C13.9502 3.54992 13.5002 3.49992 13.1502 3.84992C12.9002 4.09992 12.6502 4.44992 12.5002 4.79992C12.1502 5.84992 11.9002 6.94992 11.5502 8.04992L14.3002 8.44992L14.1002 9.19992L11.4502 8.79992Z" fill="white"/>
</g>
</svg>
