<svg width="30" height="30" viewBox="0 0 30 30" fill="none" xmlns="http://www.w3.org/2000/svg">
<g clip-path="url(#clip0_4088_52602)">
<path d="M14.9923 29.8953C23.1835 29.8953 29.8238 23.2551 29.8238 15.0639C29.8238 6.87269 23.1835 0.232422 14.9923 0.232422C6.80116 0.232422 0.160889 6.87269 0.160889 15.0639C0.160889 23.2551 6.80116 29.8953 14.9923 29.8953Z" fill="#6747ED"/>
<path fill-rule="evenodd" clip-rule="evenodd" d="M14.7758 16.9804C12.582 16.9804 10.8208 15.2192 10.8208 13.0254C10.8208 10.8315 12.582 9.0703 14.7758 9.0703C16.9697 9.0703 18.7309 10.8315 18.7309 13.0254C18.7309 15.2192 16.9697 16.9804 14.7758 16.9804ZM14.7758 7.09277C18.0511 7.09277 20.7084 9.75008 20.7084 13.0254C20.7084 16.3006 18.0511 18.9579 14.7758 18.9579C11.5006 18.9579 8.84326 16.3006 8.84326 13.0254C8.84326 9.75008 11.5006 7.09277 14.7758 7.09277ZM20.4303 19.2669C20.832 19.6686 20.832 20.2866 20.4303 20.6574L16.4753 24.6124C16.0736 25.0141 15.4556 25.0141 15.0848 24.6124C14.6832 24.2108 14.6832 23.5928 15.0848 23.222L19.0399 19.2669C19.4107 18.8652 20.0596 18.8652 20.4303 19.2669ZM22.7169 8.08154C22.7169 8.63772 22.2843 9.0703 21.7281 9.0703C21.1719 9.0703 20.7393 8.63772 20.7393 8.08154C20.7393 7.52536 21.1719 7.09277 21.7281 7.09277C22.2534 7.09277 22.7169 7.52536 22.7169 8.08154Z" fill="white"/>
</g>
<defs>
<clipPath id="clip0_4088_52602">
<rect width="29.6629" height="29.6629" fill="white" transform="translate(0.161133 0.232422)"/>
</clipPath>
</defs>
</svg>
