<svg width="28" height="28" viewBox="0 0 28 28" fill="none" xmlns="http://www.w3.org/2000/svg">
<g clip-path="url(#clip0_4088_52607)">
<path d="M13.8764 0.646484C6.97363 0.646485 7.40468 3.65561 7.40468 3.65561L7.41237 6.77303H13.9995V7.70903H4.79599C4.79599 7.70903 0.378906 7.20548 0.378906 14.2069C0.378906 21.2083 4.23423 20.96 4.23423 20.96H6.53511V17.7111C6.53511 17.7111 6.41109 13.8356 10.3289 13.8356C14.2467 13.8356 16.8622 13.8356 16.8622 13.8356C16.8622 13.8356 20.5328 13.8952 20.5328 10.2695C20.5328 6.64377 20.5328 4.27445 20.5328 4.27445C20.5328 4.27445 21.0901 0.646484 13.8764 0.646484ZM10.2442 2.74282C10.8996 2.74282 11.4293 3.27529 11.4293 3.93409C11.4293 4.59289 10.8996 5.12536 10.2442 5.12536C9.58886 5.12536 9.05916 4.59289 9.05916 3.93409C9.05916 3.27529 9.58886 2.74282 10.2442 2.74282Z" fill="url(#paint0_linear_4088_52607)"/>
<path d="M14.0721 27.8381C20.9749 27.8381 20.5439 24.8289 20.5439 24.8289L20.5362 21.7115H13.949V20.7755H23.1525C23.1525 20.7755 27.5696 21.2791 27.5696 14.2777C27.5696 7.27624 23.7143 7.52453 23.7143 7.52453H21.4134V10.7735C21.4134 10.7735 21.5374 14.649 17.6197 14.649C13.7019 14.649 11.0864 14.649 11.0864 14.649C11.0864 14.649 7.41574 14.5893 7.41574 18.215C7.41574 21.8408 7.41574 24.2101 7.41574 24.2101C7.41574 24.2101 6.85844 27.8381 14.0721 27.8381ZM17.7043 25.7417C17.0489 25.7417 16.5192 25.2093 16.5192 24.5505C16.5192 23.8917 17.0489 23.3592 17.7043 23.3592C18.3597 23.3592 18.8894 23.8917 18.8894 24.5505C18.8894 25.2093 18.3597 25.7417 17.7043 25.7417Z" fill="url(#paint1_linear_4088_52607)"/>
</g>
<defs>
<linearGradient id="paint0_linear_4088_52607" x1="2.99201" y1="3.02322" x2="16.5076" y2="16.5134" gradientUnits="userSpaceOnUse">
<stop stop-color="#387EB8"/>
<stop offset="1" stop-color="#366994"/>
</linearGradient>
<linearGradient id="paint1_linear_4088_52607" x1="11.2626" y1="11.6505" x2="25.7749" y2="25.4816" gradientUnits="userSpaceOnUse">
<stop stop-color="#FFE052"/>
<stop offset="1" stop-color="#FFC331"/>
</linearGradient>
<clipPath id="clip0_4088_52607">
<rect width="27.191" height="27.191" fill="white" transform="translate(0.378418 0.647461)"/>
</clipPath>
</defs>
</svg>
