<svg width="51" height="59" viewBox="0 0 51 59" fill="none" xmlns="http://www.w3.org/2000/svg">
<g clip-path="url(#clip0_4088_52652)">
<path d="M19.771 13.5069C19.1438 13.4176 19.1139 13.3879 19.4126 13.3581C19.98 13.2688 21.2941 13.3879 22.2199 13.5962C24.3701 14.1022 26.3113 15.4117 28.372 17.7033L28.9095 18.3283L29.686 18.2093C33.001 17.6735 36.4056 18.0902 39.2427 19.3997C40.0192 19.7569 41.2436 20.4711 41.3929 20.6497C41.4527 20.7092 41.5423 21.0961 41.602 21.483C41.8111 22.8818 41.7215 23.9235 41.2735 24.727C41.0346 25.1735 41.0346 25.2925 41.1839 25.6794C41.3034 25.977 41.6617 26.1853 41.9902 26.1853C42.707 26.1853 43.4536 25.0544 43.812 23.477L43.9613 22.8521L44.2301 23.1497C45.7532 24.8461 46.9478 27.1972 47.127 28.8639L47.1867 29.3103L46.9179 28.9234C46.4699 28.2389 46.0518 27.7925 45.4844 27.4056C44.469 26.7211 43.3939 26.5127 40.5567 26.3639C37.9884 26.2151 36.525 26.0068 35.0915 25.5306C32.6426 24.727 31.3883 23.6854 28.4914 19.8461C27.2072 18.1497 26.4009 17.2271 25.5946 16.4533C23.8325 14.7569 22.0705 13.8641 19.771 13.5069Z" fill="#FF007A"/>
<path d="M42.0198 17.2861C42.0795 16.1552 42.2288 15.4112 42.5574 14.7266C42.6768 14.4588 42.7963 14.2207 42.8261 14.2207C42.856 14.2207 42.7963 14.429 42.7067 14.6671C42.4678 15.3219 42.4379 16.2445 42.5872 17.2861C42.7963 18.6254 42.8859 18.804 44.3194 20.2623C44.9764 20.9468 45.7529 21.8099 46.0515 22.167L46.5592 22.8218L46.0515 22.3456C45.4244 21.7504 43.9909 20.6194 43.6623 20.4706C43.4533 20.3516 43.4234 20.3516 43.2741 20.5004C43.1546 20.6194 43.1248 20.798 43.1248 21.6611C43.0949 23.0004 42.9157 23.8337 42.4678 24.6968C42.2288 25.1432 42.199 25.0539 42.408 24.548C42.5574 24.1611 42.5872 23.9825 42.5872 22.7027C42.5872 20.1135 42.2886 19.4885 40.4668 18.4468C40.0189 18.179 39.2424 17.7921 38.7944 17.5838C38.3166 17.3754 37.9582 17.1969 37.9881 17.1969C38.0478 17.1373 39.8098 17.6433 40.4967 17.9409C41.542 18.3576 41.7211 18.3873 41.8406 18.3576C41.9302 18.2683 41.9899 18.0302 42.0198 17.2861Z" fill="#FF007A"/>
<path d="M20.9952 21.72C19.7409 19.9938 18.9345 17.3153 19.1137 15.3213L19.1735 14.6963L19.4721 14.7558C20.0097 14.8451 20.9355 15.2022 21.3834 15.4701C22.578 16.1844 23.1156 17.1665 23.6233 19.6069C23.7726 20.3212 23.9817 21.1545 24.0713 21.4224C24.2206 21.8688 24.788 22.9105 25.2658 23.5652C25.5943 24.0414 25.3853 24.2795 24.6387 24.22C23.5038 24.1009 21.9807 23.0593 20.9952 21.72Z" fill="#FF007A"/>
<path d="M40.4969 34.6663C34.5837 32.2854 32.4932 30.2319 32.4932 26.7498C32.4932 26.2438 32.523 25.8271 32.523 25.8271C32.5529 25.8271 32.7619 26.0057 33.0307 26.214C34.2253 27.1664 35.5692 27.5831 39.3023 28.1188C41.4824 28.4462 42.7367 28.6843 43.8716 29.0712C47.4852 30.2616 49.7251 32.7021 50.2626 36.0056C50.4119 36.958 50.3223 38.7734 50.0834 39.7258C49.8744 40.4698 49.2771 41.8389 49.1278 41.8686C49.0979 41.8686 49.0382 41.7198 49.0382 41.4817C48.9784 40.2317 48.3513 39.0413 47.306 38.1187C46.0517 37.0473 44.439 36.2437 40.4969 34.6663Z" fill="#FF007A"/>
<path d="M36.3158 35.6486C36.2561 35.2021 36.1068 34.6367 36.0172 34.3986L35.8679 33.9521L36.1366 34.2795C36.5249 34.7259 36.8235 35.2617 37.0923 36.0057C37.3014 36.5712 37.3014 36.7497 37.3014 37.6723C37.3014 38.5652 37.2715 38.7735 37.0923 39.2795C36.7937 40.083 36.4353 40.6485 35.838 41.2735C34.7629 42.3747 33.3592 42.9699 31.3583 43.2378C30.9999 43.2675 29.9845 43.3568 29.0886 43.4163C26.8487 43.5354 25.3555 43.7735 24.0116 44.2496C23.8324 44.3092 23.6532 44.3687 23.6234 44.3389C23.5636 44.2794 24.4894 43.7437 25.236 43.3866C26.2813 42.8806 27.3564 42.6128 29.7157 42.1961C30.8805 42.0175 32.075 41.7794 32.3737 41.6604C35.3303 40.7378 36.7937 38.4461 36.3158 35.6486Z" fill="#FF007A"/>
<path d="M39.0334 40.4403C38.257 38.7439 38.0778 37.1367 38.4959 35.6189C38.5556 35.4701 38.6153 35.3213 38.6751 35.3213C38.7348 35.3213 38.914 35.4106 39.0932 35.5296C39.4515 35.7677 40.1982 36.1844 42.1095 37.226C44.5285 38.5355 45.9023 39.5474 46.858 40.7081C47.6942 41.72 48.2019 42.8807 48.4408 44.3093C48.5901 45.1128 48.5005 47.0473 48.2915 47.8509C47.6345 50.3806 46.1412 52.4044 43.9611 53.5651C43.6326 53.7437 43.3638 53.8627 43.3339 53.8627C43.3041 53.8627 43.4235 53.5651 43.6027 53.208C44.3195 51.6901 44.4091 50.2318 43.8715 48.5949C43.543 47.5831 42.8561 46.3628 41.4823 44.3093C39.8398 41.9284 39.4515 41.3034 39.0334 40.4403Z" fill="#FF007A"/>
<path d="M16.7844 49.5475C18.9944 47.7023 21.712 46.3928 24.2207 45.9761C25.2958 45.7975 27.0877 45.857 28.0732 46.1249C29.656 46.5416 31.0895 47.4344 31.8362 48.5356C32.5529 49.607 32.8814 50.5296 33.2099 52.5832C33.3294 53.3867 33.4787 54.2201 33.5086 54.3986C33.7475 55.47 34.2253 56.3034 34.8226 56.7498C35.7484 57.4343 37.3611 57.4641 38.9439 56.8688C39.2127 56.7795 39.4516 56.6903 39.4516 56.72C39.5114 56.7795 38.705 57.3153 38.1675 57.5831C37.4208 57.97 36.8235 58.0891 36.0172 58.0891C34.5837 58.0891 33.3593 57.345 32.3737 55.8569C32.1647 55.5593 31.7466 54.6962 31.3882 53.8927C30.3429 51.482 29.8054 50.7677 28.5809 49.9641C27.5058 49.2796 26.132 49.1308 25.0868 49.6368C23.713 50.2915 23.3546 52.0475 24.3103 53.1189C24.6985 53.5653 25.4153 53.9224 26.0126 54.0117C27.1175 54.1605 28.0732 53.2974 28.0732 52.1963C28.0732 51.482 27.8044 51.0653 27.0877 50.7379C26.132 50.3213 25.0868 50.7975 25.1166 51.7201C25.1166 52.107 25.2958 52.3451 25.684 52.5236C25.923 52.6427 25.923 52.6427 25.7438 52.6129C24.8777 52.4344 24.6686 51.3629 25.3555 50.6784C26.1917 49.8451 27.9538 50.2022 28.551 51.3629C28.79 51.8391 28.8198 52.7915 28.6108 53.3867C28.1031 54.6962 26.6696 55.3808 25.2062 54.9939C24.2207 54.726 23.8026 54.4581 22.608 53.2379C20.5175 51.0951 19.7111 50.6784 16.7247 50.232L16.1572 50.1427L16.7844 49.5475Z" fill="#FF007A"/>
<path fill-rule="evenodd" clip-rule="evenodd" d="M1.07532 1.66158C8.03378 10.0841 18.7552 23.1792 19.2927 23.8935C19.7407 24.4887 19.5615 25.0542 18.8149 25.4708C18.3968 25.7089 17.5307 25.947 17.1126 25.947C16.6348 25.947 16.0674 25.7089 15.6791 25.322C15.4103 25.0542 14.2456 23.3578 11.6175 19.2804C9.6166 16.1555 7.91432 13.5662 7.88445 13.5364C7.765 13.4769 7.765 13.4769 11.4085 19.9649C13.7081 24.0423 14.4547 25.5006 14.4547 25.6792C14.4547 26.0661 14.3352 26.2744 13.8574 26.8101C13.051 27.7029 12.6927 28.7148 12.4239 30.8279C12.1252 33.1791 11.3189 34.8457 9.01931 37.6731C7.6754 39.3397 7.46635 39.6373 7.13784 40.3218C6.71973 41.1552 6.60028 41.6314 6.54055 42.7028C6.48082 43.8337 6.60028 44.548 6.92879 45.6194C7.22743 46.5718 7.55594 47.1968 8.36229 48.417C9.04917 49.4884 9.46728 50.292 9.46728 50.5896C9.46728 50.8277 9.52701 50.8277 10.6021 50.5896C13.1705 49.9944 15.2909 48.9825 16.4556 47.7325C17.1724 46.9587 17.3515 46.542 17.3515 45.4706C17.3515 44.7861 17.3217 44.6373 17.1425 44.2206C16.8438 43.5659 16.2764 43.0302 15.052 42.1968C13.4393 41.0956 12.7524 40.2028 12.5732 39.0123C12.4239 38.0004 12.6031 37.3159 13.499 35.441C14.4248 33.5065 14.6637 32.7029 14.813 30.7386C14.9026 29.4886 15.052 28.9827 15.4103 28.5958C15.7986 28.1791 16.1271 28.0303 17.0529 27.9113C18.576 27.7029 19.5615 27.316 20.338 26.572C21.0249 25.947 21.3235 25.322 21.3534 24.3994L21.3833 23.7149L20.995 23.2982C19.5914 21.6911 0.149516 0.381836 0.0599221 0.381836C0.0300575 0.381836 0.507892 0.947306 1.07532 1.66158ZM10.2438 43.9825C10.5723 43.417 10.3931 42.7028 9.85552 42.3456C9.34782 42.0183 8.57134 42.1671 8.57134 42.6135C8.57134 42.7325 8.63107 42.8516 8.81026 42.9111C9.07904 43.0599 9.1089 43.2087 8.89985 43.5361C8.6908 43.8635 8.6908 44.1611 8.95958 44.3694C9.37769 44.6968 9.94511 44.5182 10.2438 43.9825Z" fill="#FF007A"/>
<path fill-rule="evenodd" clip-rule="evenodd" d="M22.3391 28.3276C21.6224 28.536 20.9355 29.3098 20.7264 30.0836C20.607 30.5598 20.6667 31.4228 20.8757 31.6907C21.2042 32.1074 21.5029 32.2264 22.3391 32.2264C23.9817 32.2264 25.3853 31.5121 25.5346 30.649C25.6839 29.9348 25.0568 28.9526 24.1907 28.5062C23.7427 28.2681 22.8169 28.1788 22.3391 28.3276ZM24.2504 29.8157C24.4894 29.4586 24.3998 29.0717 23.9518 28.8038C23.1454 28.2979 21.921 28.7145 21.921 29.4883C21.921 29.8752 22.5482 30.2919 23.1454 30.2919C23.5337 30.2919 24.0713 30.0538 24.2504 29.8157Z" fill="#FF007A"/>
</g>
<defs>
<clipPath id="clip0_4088_52652">
<rect width="50.2622" height="57.6779" fill="white" transform="translate(0.0600586 0.381836)"/>
</clipPath>
</defs>
</svg>
